<?xml version="1.0" ?><!DOCTYPE svg  PUBLIC '-//W3C//DTD SVG 1.1//EN'  'http://www.w3.org/Graphics/SVG/1.1/DTD/svg11.dtd'><svg enable-background="new 0 0 24 24" height="24px" id="Layer_1" version="1.1" viewBox="0 0 24 24" width="24px" xml:space="preserve" xmlns="http://www.w3.org/2000/svg" xmlns:xlink="http://www.w3.org/1999/xlink"><g><path d="M24,15h-1c0-1.1-0.9-2-2-2c-0.4,0-0.7,0.1-1,0.3c0-0.1,0-0.2,0-0.3c0-1.1-0.9-2-2-2c-0.4,0-0.7,0.1-1,0.3   c0-0.1,0-0.2,0-0.3c0-1.1-0.9-2-2-2c-0.4,0-0.7,0.1-1,0.3c0-0.1,0-0.2,0-0.3c0-1.1-0.9-2-2-2s-2,0.9-2,2c0,0.1,0,0.2,0,0.3   C9.7,9.1,9.4,9,9,9c-1.1,0-2,0.9-2,2c0,0.1,0,0.2,0,0.3C6.7,11.1,6.4,11,6,11c-1.1,0-2,0.9-2,2c0,0.1,0,0.2,0,0.3   C3.7,13.1,3.4,13,3,13c-1.1,0-2,0.9-2,2H0c1.2,2.8,3.3,5.1,6,6.5V23c0,0.6,0.4,1,1,1h1c0.6,0,1-0.4,1-1v-0.3c1,0.2,2,0.3,3,0.3   s2-0.1,3-0.3V23c0,0.6,0.4,1,1,1h1c0.6,0,1-0.4,1-1v-1.5C20.7,20.1,22.8,17.8,24,15z M14,15c0-0.6,0.4-1,1-1s1,0.4,1,1H14z    M16,13.3c-0.3-0.2-0.7-0.3-1-0.3s-0.7,0.1-1,0.3c0-0.1,0-0.2,0-0.3s0-0.2,0-0.3c0.3,0.2,0.7,0.3,1,0.3s0.7-0.1,1-0.3   c0,0.1,0,0.2,0,0.3S16,13.2,16,13.3z M13,11.3c-0.3-0.2-0.7-0.3-1-0.3s-0.7,0.1-1,0.3c0-0.1,0-0.2,0-0.3s0-0.2,0-0.3   c0.3,0.2,0.7,0.3,1,0.3s0.7-0.1,1-0.3c0,0.1,0,0.2,0,0.3S13,11.2,13,11.3z M13,13c0,0.6-0.4,1-1,1s-1-0.4-1-1s0.4-1,1-1   S13,12.4,13,13z M8,15c0-0.6,0.4-1,1-1s1,0.4,1,1H8z M10,13.3C9.7,13.1,9.4,13,9,13s-0.7,0.1-1,0.3c0-0.1,0-0.2,0-0.3s0-0.2,0-0.3   C8.3,12.9,8.6,13,9,13s0.7-0.1,1-0.3c0,0.1,0,0.2,0,0.3S10,13.2,10,13.3z M7,15H6H5c0-0.1,0-0.2,0-0.3C5.3,14.9,5.6,15,6,15   s0.7-0.1,1-0.3C7,14.8,7,14.9,7,15z M11,14.7c0.3,0.2,0.7,0.3,1,0.3s0.7-0.1,1-0.3c0,0.1,0,0.2,0,0.3h-1h-1   C11,14.9,11,14.8,11,14.7z M17,14.7c0.3,0.2,0.7,0.3,1,0.3s0.7-0.1,1-0.3c0,0.1,0,0.2,0,0.3h-1h-1C17,14.9,17,14.8,17,14.7z M21,14   c0.6,0,1,0.4,1,1h-2C20,14.4,20.4,14,21,14z M18,12c0.6,0,1,0.4,1,1s-0.4,1-1,1s-1-0.4-1-1S17.4,12,18,12z M15,10c0.6,0,1,0.4,1,1   s-0.4,1-1,1s-1-0.4-1-1S14.4,10,15,10z M12,8c0.6,0,1,0.4,1,1s-0.4,1-1,1s-1-0.4-1-1S11.4,8,12,8z M9,10c0.6,0,1,0.4,1,1   s-0.4,1-1,1s-1-0.4-1-1S8.4,10,9,10z M6,12c0.6,0,1,0.4,1,1s-0.4,1-1,1s-1-0.4-1-1S5.4,12,6,12z M3,14c0.6,0,1,0.4,1,1H2   C2,14.4,2.4,14,3,14z M8,23H7v-1c0.3,0.1,0.7,0.3,1,0.4V23z M17,23h-1v-0.6c0.3-0.1,0.7-0.2,1-0.4V23z M12,21c-3.4,0-6.5-1.6-8.5-4   h16.9C18.5,19.4,15.4,21,12,21z"/><path d="M8.7,4.3c0,0-0.2,0.4,0.1,0.6s0.7,0,0.7,0c0.8-0.8,0.8-2-0.2-2.8c-0.4-0.4-0.4-1,0.1-1.5c0,0,0.2-0.3-0.1-0.5   c-0.2-0.2-0.6,0-0.6,0c-0.8,0.8-0.7,2,0.1,2.8C9.2,3.4,9.1,3.9,8.7,4.3z"/><path d="M11.7,4.3c0,0-0.2,0.4,0.1,0.6s0.7,0,0.7,0c0.8-0.8,0.8-2-0.2-2.8c-0.4-0.4-0.4-1,0.1-1.5c0,0,0.2-0.3-0.1-0.5   c-0.2-0.2-0.6,0-0.6,0c-0.8,0.8-0.7,2,0.1,2.8C12.2,3.4,12.1,3.9,11.7,4.3z"/><path d="M14.7,4.3c0,0-0.2,0.4,0.1,0.6s0.7,0,0.7,0c0.8-0.8,0.8-2-0.2-2.8c-0.4-0.4-0.4-1,0.1-1.5c0,0,0.2-0.3-0.1-0.5   c-0.2-0.2-0.6,0-0.6,0c-0.8,0.8-0.7,2,0.1,2.8C15.2,3.4,15.1,3.9,14.7,4.3z"/></g></svg>