<?xml version="1.0" ?><!DOCTYPE svg  PUBLIC '-//W3C//DTD SVG 1.1//EN'  'http://www.w3.org/Graphics/SVG/1.1/DTD/svg11.dtd'><svg enable-background="new 0 0 64 64" height="64px" id="Layer_1" version="1.1" viewBox="0 0 64 64" width="64px" xml:space="preserve" xmlns="http://www.w3.org/2000/svg" xmlns:xlink="http://www.w3.org/1999/xlink"><path d="M62.448,47.229h-1.511c-1.834,0-1.764-1.748-1.764-1.748s-0.011,0.003-0.014,0.003  c-1.022-10.265-7.709-18.841-16.896-22.575c-0.025-0.014-0.043-0.027-0.071-0.039c-1.488-0.652-1.522-2.11-1.522-2.11V16.84  c0-2.524-2.047-4.573-4.573-4.573h-8.193c-2.524,0-4.573,2.048-4.573,4.573v4.5c-0.042,0.376-0.265,1.003-1.238,1.415  c-0.064,0.028-0.112,0.054-0.161,0.077C12.667,26.52,5.898,35.108,4.844,45.412l-0.01-0.003c0,0-0.152,1.819-1.891,1.819H1.812  c-0.362,0.009-1.792,0.134-1.792,1.61v1.182c0.021,0.506,0.241,1.712,1.899,1.712H62.01c1.642,0,1.929-1.062,1.971-1.596v-1.203  C63.98,47.514,62.965,47.264,62.448,47.229z M26.316,17.99c0-1.609,1.304-2.915,2.915-2.915h5.221c1.61,0,2.914,1.305,2.914,2.915  v1.554c-0.008,0.366-0.148,1.715-1.84,1.557c-0.091-0.009-0.153-0.006-0.216-0.003c-1.087-0.134-2.187-0.224-3.311-0.224  c-1.282,0-2.532,0.124-3.766,0.298c-0.086-0.003-0.186,0-0.307,0.016c-1.343,0.159-1.578-0.683-1.611-1.114V17.99z M9.566,45.597  C10.417,33.923,20.109,24.703,32,24.703c11.908,0,21.632,9.238,22.463,20.936c-0.06,0.67-0.474,1.676-2.48,1.676H11.755  C10.012,47.314,9.621,46.32,9.566,45.597z" fill="#241F20"/></svg>