<?xml version="1.0" ?><!DOCTYPE svg  PUBLIC '-//W3C//DTD SVG 1.1//EN'  'http://www.w3.org/Graphics/SVG/1.1/DTD/svg11.dtd'><svg height="512px" style="enable-background:new 0 0 512 512;" version="1.1" viewBox="0 0 512 512" width="512px" xml:space="preserve" xmlns="http://www.w3.org/2000/svg" xmlns:xlink="http://www.w3.org/1999/xlink"><g id="C_-_31_x2C__Schedule_x2C__Approved_x2C__business_x2C__calendar_x2C__event_x2C__plan_x2C__planning"><g><path d="M439.906,46.169H45.156v26.382H336.82c2.588,0,4.686,2.097,4.686,4.686    c0,2.588-2.098,4.685-4.686,4.685H45.156v35.319h394.75V46.169z" style="fill-rule:evenodd;clip-rule:evenodd;"/><rect height="26.268" style="fill-rule:evenodd;clip-rule:evenodd;" width="26.55" x="161.898" y="233.986"/><rect height="26.271" style="fill-rule:evenodd;clip-rule:evenodd;" width="26.553" x="368.451" y="162.116"/><rect height="26.268" style="fill-rule:evenodd;clip-rule:evenodd;" width="26.55" x="233.746" y="233.986"/><path d="M271.287,392.472c-0.105-0.526-0.208-1.055-0.306-1.584    c-0.073-0.394-0.142-0.788-0.21-1.183c-0.078-0.455-0.155-0.91-0.228-1.367c-0.075-0.468-0.144-0.939-0.211-1.411    c-0.058-0.4-0.116-0.801-0.17-1.202c-0.069-0.525-0.132-1.054-0.193-1.582c-0.042-0.358-0.086-0.716-0.124-1.074    c-0.061-0.572-0.111-1.146-0.162-1.721c-0.029-0.324-0.063-0.646-0.088-0.97c-0.048-0.611-0.086-1.226-0.124-1.84    c-0.019-0.292-0.04-0.584-0.056-0.876c-0.035-0.659-0.059-1.322-0.08-1.985c-0.009-0.249-0.022-0.497-0.029-0.746    c-0.023-0.909-0.037-1.82-0.037-2.734c0-1.021,0.02-2.039,0.049-3.053c0.009-0.273,0.021-0.548,0.032-0.821    c0.028-0.774,0.065-1.547,0.111-2.316c0.017-0.274,0.034-0.547,0.053-0.819c0.058-0.847,0.126-1.69,0.203-2.53    c0.016-0.172,0.029-0.342,0.046-0.512c0.103-1.051,0.217-2.098,0.352-3.139H45.156v35.321h226.513    c-0.071-0.323-0.132-0.649-0.2-0.973C271.407,393.061,271.347,392.767,271.287,392.472z" style="fill-rule:evenodd;clip-rule:evenodd;"/><rect height="26.271" style="fill-rule:evenodd;clip-rule:evenodd;" width="26.549" x="224.765" y="162.116"/><rect height="26.268" style="fill-rule:evenodd;clip-rule:evenodd;" width="26.55" x="90.058" y="233.986"/><path d="M372.742,278.561c-46.081,0-84.528,33.131-92.557,76.71    c-0.236,1.284-0.443,2.576-0.626,3.873c-0.021,0.144-0.041,0.287-0.061,0.432c-0.175,1.279-0.321,2.563-0.442,3.853    c-0.015,0.154-0.027,0.309-0.041,0.465c-0.115,1.291-0.206,2.584-0.267,3.88c-0.007,0.139-0.011,0.278-0.017,0.416    c-0.057,1.336-0.092,2.673-0.092,4.008c0,0.976,0.021,1.949,0.051,2.923c0.008,0.265,0.02,0.529,0.029,0.793    c0.008,0.188,0.021,0.374,0.029,0.561c0.025,0.565,0.052,1.131,0.088,1.695c0.016,0.24,0.028,0.48,0.046,0.72    c0.024,0.335,0.058,0.67,0.085,1.004c0.053,0.644,0.101,1.288,0.166,1.929c0.047,0.457,0.109,0.91,0.164,1.366    c0.059,0.496,0.113,0.995,0.18,1.491c0.037,0.276,0.078,0.553,0.117,0.828c0.044,0.306,0.094,0.611,0.141,0.917    c0.059,0.382,0.117,0.765,0.18,1.146c0.049,0.297,0.096,0.594,0.148,0.889c0.067,0.385,0.145,0.768,0.217,1.15    c0.094,0.496,0.185,0.992,0.286,1.486c0.097,0.47,0.204,0.936,0.308,1.402c0.021,0.092,0.041,0.185,0.063,0.277    c0.066,0.299,0.133,0.598,0.204,0.896c0.133,0.563,0.271,1.124,0.413,1.683c0.041,0.163,0.085,0.325,0.127,0.488    c10.555,40.221,47.378,69.992,91.061,69.992c51.889,0,94.103-42.005,94.103-93.636S424.631,278.561,372.742,278.561z     M429.219,349.285l-80.824,53.631c-0.795,0.528-1.695,0.782-2.587,0.782c-1.426,0-2.829-0.648-3.745-1.866l-26.938-35.755    c-1.558-2.067-1.144-5.005,0.923-6.562c2.066-1.559,5.004-1.146,6.561,0.922l24.283,32.23l77.146-51.191    c2.158-1.432,5.066-0.842,6.495,1.313C431.963,344.946,431.375,347.854,429.219,349.285z" style="fill-rule:evenodd;clip-rule:evenodd;"/><rect height="26.271" style="fill-rule:evenodd;clip-rule:evenodd;" width="26.55" x="152.924" y="162.116"/><path d="M372.742,269.189c1.391,0,2.772,0.036,4.15,0.09    c0.275,0.011,0.552,0.02,0.828,0.032c1.207,0.057,2.407,0.138,3.604,0.235c0.508,0.041,1.016,0.087,1.522,0.135    c0.841,0.082,1.679,0.174,2.514,0.275c0.985,0.118,1.968,0.252,2.946,0.397c0.131,0.021,0.262,0.04,0.393,0.061    c18.963,2.889,36.557,10.896,51.207,23.405V126.611H45.156v223.023h226.622C282.139,303.652,323.471,269.189,372.742,269.189z     M80.687,264.939v-35.639c0-2.588,2.098-4.685,4.686-4.685h35.921c2.587,0,4.686,2.097,4.686,4.685v35.639    c0,2.588-2.098,4.686-4.686,4.686H85.372C82.785,269.625,80.687,267.527,80.687,264.939z M103.292,327.505H85.357v-17.85h17.935    V327.505z M139.228,327.505h-17.935v-17.85h17.935V327.505z M143.553,193.073V157.43c0-2.588,2.098-4.686,4.686-4.686h35.92    c2.588,0,4.686,2.098,4.686,4.686v35.643c0,2.588-2.098,4.686-4.686,4.686h-35.92C145.65,197.758,143.553,195.661,143.553,193.073    z M175.162,327.505h-17.935v-17.85h17.935V327.505z M157.213,269.625c-2.588,0-4.686-2.098-4.686-4.686v-35.639    c0-2.588,2.098-4.685,4.686-4.685h35.921c2.587,0,4.686,2.097,4.686,4.685v35.639c0,2.588-2.098,4.686-4.686,4.686H157.213z     M211.098,327.505h-17.935v-17.85h17.935V327.505z M215.394,193.073V157.43c0-2.588,2.098-4.686,4.686-4.686H256    c2.587,0,4.686,2.098,4.686,4.686v35.643c0,2.588-2.099,4.686-4.686,4.686h-35.92    C217.492,197.758,215.394,195.661,215.394,193.073z M269.667,264.939c0,2.588-2.098,4.686-4.686,4.686h-35.921    c-2.587,0-4.685-2.098-4.685-4.686v-35.639c0-2.588,2.098-4.685,4.685-4.685h35.921c2.588,0,4.686,2.097,4.686,4.685V264.939z     M359.08,157.43c0-2.588,2.098-4.686,4.686-4.686h35.923c2.589,0,4.686,2.098,4.686,4.686v35.643c0,2.588-2.097,4.686-4.686,4.686    h-35.923c-2.588,0-4.686-2.098-4.686-4.686V157.43z M287.241,193.073V157.43c0-2.588,2.099-4.686,4.686-4.686h35.921    c2.588,0,4.686,2.098,4.686,4.686v35.643c0,2.588-2.098,4.686-4.686,4.686h-35.921    C289.34,197.758,287.241,195.661,287.241,193.073z" style="fill-rule:evenodd;clip-rule:evenodd;"/><rect height="26.271" style="fill-rule:evenodd;clip-rule:evenodd;" width="26.55" x="296.612" y="162.116"/></g></g><g id="Layer_1"/></svg>